<svg width="33" height="33" viewBox="0 0 33 33" version="1.1" xmlns="http://www.w3.org/2000/svg" xmlns:xlink="http://www.w3.org/1999/xlink">
<title>Union</title>
<desc>Created using Figma</desc>
<g id="Canvas" transform="translate(-1100 121)">
<g id="Union">
<use xlink:href="#path0_fill" transform="translate(1100.25 -120.412)" fill="#333333"/>
<use xlink:href="#path1_fill" transform="translate(1100.25 -120.412)" fill="#333333"/>
<use xlink:href="#path2_fill" transform="translate(1100.25 -120.412)" fill="#333333"/>
<use xlink:href="#path3_fill" transform="translate(1100.25 -120.412)" fill="#333333"/>
<use xlink:href="#path4_fill" transform="translate(1100.25 -120.412)" fill="#333333"/>
<use xlink:href="#path5_fill" transform="translate(1100.25 -120.412)" fill="#333333"/>
</g>
</g>
<defs>
<path id="path0_fill" d="M 18.9614 5.67559L 20.1473 5.67559L 20.1473 6.70866L 18.9614 6.70866L 18.9614 5.67559Z"/>
<path id="path1_fill" d="M 22.5121 5.67559L 21.3261 5.67559L 21.3261 6.70866L 22.5121 6.70866L 22.5121 5.67559Z"/>
<path id="path2_fill" d="M 16.5894 5.67559L 17.7754 5.67559L 17.7754 6.70866L 16.5894 6.70866L 16.5894 5.67559Z"/>
<path id="path3_fill" fill-rule="evenodd" d="M 24.8841 2.06614L 19.5544 2.06614L 19.5544 1.54961C 19.5544 0.692913 18.7589 0 17.7754 0L 7.10871 0C 6.1252 0 5.32972 0.692913 5.32972 1.54961L 5.32972 6.70866C 5.32972 7.56536 6.1252 8.25827 7.10871 8.25827L 7.7017 8.25827L 7.7017 10.3244L 10.8619 8.25827L 12.4384 8.25827L 12.4384 8.7748C 12.4384 9.6315 13.2339 10.3244 14.2174 10.3244L 20.5379 10.3244L 23.6981 12.3843L 23.6981 10.3181L 24.8841 10.3181C 25.8676 10.3181 26.6631 9.6252 26.6631 8.7685L 26.6631 3.61575C 26.6631 2.75906 25.8676 2.06614 24.8841 2.06614ZM 12.4384 3.61575L 12.4384 7.2315L 10.4642 7.2315L 8.88046 8.26457L 8.88046 7.2315L 7.10147 7.2315C 6.77605 7.2315 6.50848 6.99843 6.50848 6.71496L 6.50848 1.54961C 6.50848 1.25984 6.76881 1.03307 7.10147 1.03307L 17.7681 1.03307C 18.0936 1.03307 18.3611 1.26614 18.3611 1.54961L 18.3611 2.06614L 14.2102 2.06614C 13.2411 2.06614 12.4384 2.75906 12.4384 3.61575ZM 25.4771 8.7748C 25.4771 9.05827 25.2095 9.29134 24.8841 9.29134L 22.5121 9.29134L 22.5121 10.3244L 20.9284 9.29134L 14.2102 9.29134C 13.892 9.29134 13.6244 9.05827 13.6244 8.7748L 13.6244 3.61575C 13.6244 3.33228 13.892 3.09921 14.2174 3.09921L 24.8841 3.09921C 25.2095 3.09921 25.4771 3.33228 25.4771 3.61575L 25.4771 8.7748Z"/>
<path id="path4_fill" fill-rule="evenodd" d="M 10.6667 16.5165C 10.6667 17.2535 10.4063 17.9339 9.97243 18.5071C 11.8093 19.263 13.0314 20.9008 13.0386 22.715L 13.0386 26.8409L 10.0737 26.8409L 10.0737 32L 2.96497 32L 2.96497 26.8346L 0 26.8346L 0 22.7087C 0 20.8945 1.22215 19.263 3.06621 18.5071C 2.62508 17.9339 2.36474 17.2535 2.36474 16.5165C 2.36474 14.5197 4.23051 12.9008 6.51571 12.9008C 8.80813 12.9008 10.6667 14.526 10.6667 16.5165ZM 9.48068 16.5165C 9.48068 15.0929 8.15005 13.9339 6.51571 13.9339C 4.88135 13.9339 3.55074 15.0929 3.55074 16.5165C 3.55074 17.9402 4.88135 19.0992 6.51571 19.0992C 8.15005 19.0992 9.48068 17.9402 9.48068 16.5165ZM 10.0664 25.8079L 11.8454 25.8079L 11.8454 22.7087C 11.8454 21.1905 10.739 19.8362 9.12633 19.3197C 8.3887 19.8425 7.47752 20.126 6.51571 20.126C 5.5539 20.126 4.64271 19.8425 3.90509 19.3197C 2.29243 19.8362 1.18599 21.1905 1.18599 22.7087L 1.18599 25.8079L 2.95774 25.8079L 2.95774 23.2252L 4.14373 23.2252L 4.14373 30.9669L 5.91548 30.9669L 5.91548 27.3134L 7.10147 27.3134L 7.10147 30.9669L 8.88045 30.9669L 8.88045 23.2252L 10.0664 23.2252L 10.0664 25.8079Z"/>
<path id="path5_fill" fill-rule="evenodd" d="M 29.628 16.5165C 29.628 17.2535 29.3677 17.9339 28.9338 18.5071C 30.7706 19.263 31.9928 20.9008 32 22.715L 32 26.8409L 29.035 26.8409L 29.035 32L 21.9263 32L 21.9263 26.8346L 18.9614 26.8346L 18.9614 22.7087C 18.9614 20.8945 20.1835 19.263 22.0276 18.5071C 21.5864 17.9339 21.3261 17.2535 21.3261 16.5165C 21.3261 14.5197 23.1919 12.9008 25.4771 12.9008C 27.7695 12.9008 29.628 14.526 29.628 16.5165ZM 28.442 16.5165C 28.442 15.0929 27.1114 13.9339 25.4771 13.9339C 23.8427 13.9339 22.5121 15.0929 22.5121 16.5165C 22.5121 17.9402 23.8427 19.0992 25.4771 19.0992C 27.1114 19.0992 28.442 17.9402 28.442 16.5165ZM 29.0278 23.2252L 29.0278 25.8079L 30.7923 25.8079L 30.7923 22.7087C 30.7923 21.1905 29.6859 19.8362 28.0732 19.3197C 27.3356 19.8425 26.4244 20.126 25.4626 20.126C 24.5008 20.126 23.5896 19.8425 22.852 19.3197C 21.2393 19.8362 20.1329 21.1905 20.1329 22.7087L 20.1329 25.8079L 21.9119 25.8079L 21.9119 23.2252L 23.0979 23.2252L 23.0979 30.9669L 24.8768 30.9669L 24.8768 27.3134L 26.0628 27.3134L 26.0628 30.9669L 27.8418 30.9669L 27.8418 23.2252L 29.0278 23.2252Z"/>
</defs>
</svg>
