<svg width="33" height="33" viewBox="0 0 33 33" version="1.1" xmlns="http://www.w3.org/2000/svg" xmlns:xlink="http://www.w3.org/1999/xlink">
<title>Group</title>
<desc>Created using Figma</desc>
<g id="Canvas" transform="translate(103 22)">
<g id="Group">
<g id="Group">
<g id="Group">
<g id="Vector">
<use xlink:href="#path0_fill" transform="translate(-103 -22)"/>
</g>
</g>
</g>
</g>
</g>
<defs>
<path id="path0_fill" d="M 30.25 0L 2.75002 0C 1.20998 0 0 1.20998 0 2.75002L 0 30.25C 0 31.79 1.20998 33 2.75002 33L 15.4 33L 22 33L 30.25 33C 31.79 33 33 31.79 33 30.25L 33 2.75002C 33 1.20998 31.79 0 30.25 0ZM 16.5 31.9L 16.5 20.9L 12.1 20.9L 12.1 16.5L 16.5 16.5L 16.5 12.65C 16.5 9.51502 18.92 6.87502 22 6.6L 26.95 6.6L 26.95 11L 22.55 11C 21.6149 11 20.9 11.715 20.9 12.65L 20.9 16.5L 26.4 16.5L 26.4 20.9L 20.9 20.9L 20.9 31.9L 16.5 31.9L 16.5 31.9ZM 31.9 30.25C 31.9 31.185 31.185 31.9 30.25 31.9L 22 31.9L 22 22L 27.5 22L 27.5 15.4L 22 15.4L 22 12.65C 22 12.32 22.22 12.1 22.55 12.1L 28.05 12.1L 28.05 5.49998L 21.945 5.49998C 18.26 5.82998 15.4 8.96498 15.4 12.65L 15.4 15.4L 11 15.4L 11 22L 15.4 22L 15.4 31.9L 2.75002 31.9C 1.815 31.9 1.10002 31.185 1.10002 30.25L 1.10002 2.75002C 1.10002 1.815 1.815 1.10002 2.75002 1.10002L 30.25 1.10002C 31.1851 1.10002 31.9 1.815 31.9 2.75002L 31.9 30.25L 31.9 30.25Z"/>
</defs>
</svg>
