<svg width="33" height="33" viewBox="0 0 33 33" version="1.1" xmlns="http://www.w3.org/2000/svg" xmlns:xlink="http://www.w3.org/1999/xlink">
<title>Logo</title>
<desc>Created using Figma</desc>
<g id="Canvas" transform="translate(-697 121)">
<g id="Logo">
<use xlink:href="#path0_fill" transform="translate(697.864 -120.126)" fill="#333333"/>
</g>
</g>
<defs>
<path id="path0_fill" d="M 31.9494 5.65332L 25.3162 25.7589C 25.2333 26.0105 25.0569 26.215 24.8196 26.3346C 24.6786 26.4056 24.5262 26.4415 24.373 26.4415C 24.2684 26.4415 24.1634 26.4248 24.0613 26.3911L 22.4021 25.8438C 22.0677 25.7335 21.8861 25.3731 21.9964 25.0388C 22.1067 24.7044 22.4675 24.5228 22.8014 24.6331L 24.1936 25.0923L 30.6508 5.5206L 18.0064 1.34892L 16.2123 6.78738C 16.1019 7.12174 15.7411 7.30327 15.4073 7.19299C 15.0729 7.08272 14.8913 6.72229 15.0016 6.38792L 16.8838 0.68245C 17.0558 0.162097 17.6186 -0.121558 18.1388 0.0501224L 31.3173 4.39802C 31.569 4.48088 31.7735 4.65731 31.8931 4.89471C 32.0127 5.13212 32.0326 5.40154 31.9494 5.65332ZM 18.8863 5.07964C 18.9526 5.10152 19.0199 5.11193 19.0861 5.11193C 19.3536 5.11193 19.603 4.9421 19.6913 4.67402L 19.8814 4.09793C 19.9918 3.76363 19.8101 3.4032 19.4758 3.29286C 19.1417 3.18258 18.781 3.36411 18.6707 3.69847L 18.4807 4.27457C 18.3704 4.60893 18.552 4.96936 18.8863 5.07964ZM 22.5088 21.7672L 22.3187 22.3433C 22.2084 22.6776 22.3901 23.0381 22.7244 23.1484C 22.7907 23.1703 22.858 23.1807 22.9242 23.1807C 23.1918 23.1807 23.441 23.0108 23.5294 22.7428L 23.7195 22.1667C 23.8299 21.8324 23.6482 21.4719 23.3138 21.3616C 22.98 21.2515 22.6191 21.4328 22.5088 21.7672ZM 18.0233 10.5644C 18.207 10.0077 18.5967 9.55573 19.1205 9.29169C 19.6445 9.02765 20.2395 8.98346 20.7964 9.16718C 21.4836 9.39389 21.857 9.79603 22.0731 10.2709C 22.5295 10.0179 23.0688 9.91686 23.7563 10.1437C 24.9058 10.5231 25.5327 11.767 25.1535 12.9167C 24.5823 14.6478 22.4614 15.7162 20.4104 16.7495C 20.3184 16.7958 20.2205 16.8178 20.1241 16.8178C 19.891 16.8178 19.6664 16.6895 19.5544 16.4671C 18.5208 14.4161 17.4521 12.2952 18.0233 10.5644ZM 20.4065 15.3229C 22.0325 14.4937 23.5794 13.6186 23.9428 12.5174C 24.1018 12.0352 23.8389 11.5135 23.3568 11.3544C 22.9682 11.2261 22.7164 11.2627 22.1626 11.8199C 21.9924 11.9912 21.74 12.0517 21.5108 11.976C 21.2815 11.9003 21.1146 11.7017 21.0797 11.4628C 20.9661 10.6851 20.7854 10.506 20.397 10.3779C 20.3023 10.3466 20.2049 10.3311 20.108 10.3311C 19.9659 10.3311 19.8248 10.3644 19.6942 10.4302C 19.4743 10.5409 19.3109 10.7304 19.2339 10.9638C 18.8705 12.0649 19.5931 13.6889 20.4065 15.3229ZM 15.537 14.9984L 15.537 21.2151C 15.537 21.5672 15.8224 21.8526 16.1744 21.8526C 16.5265 21.8526 16.8119 21.5672 16.8119 21.2151L 16.8119 14.9984C 16.8119 12.7651 16.4034 10.8889 15.598 9.42201C 14.8495 8.05876 13.7561 7.07719 12.4345 6.58113L 8.18138 4.6629C 7.9563 4.56141 7.69304 4.59902 7.50543 4.75915C 7.31781 4.91936 7.23941 5.17355 7.30435 5.4116L 7.65883 6.71159C 5.46856 7.52778 3.44763 9.25847 1.91632 11.6443C 1.85038 11.747 1.81532 11.8665 1.81532 11.9886L 1.81532 15.9327C 1.81532 16.2848 2.10068 16.5701 2.45275 16.5701L 4.92073 16.5701C 4.94205 16.5701 4.96329 16.5691 4.9844 16.5669C 5.65944 16.4992 6.75794 16.143 6.91729 14.5668C 7.1314 14.4833 7.36066 14.4399 7.59339 14.4399C 8.61852 14.4399 9.45241 15.2738 9.45241 16.2988C 9.45241 17.4772 8.72794 17.7591 7.22078 18.2369C 5.34292 18.8321 2.77111 19.6473 2.77111 23.9097L 2.77111 24.9242C 1.57395 24.927 0.600811 25.9017 0.600811 27.0996C 0.600811 27.2952 0.6273 27.489 0.678931 27.6758C 0.250792 28.0814 1.65843e-08 28.6476 1.65843e-08 29.253C -7.08087e-05 29.8324 0.226712 30.3782 0.638702 30.7901C 1.05048 31.2019 1.59633 31.4288 2.17547 31.4288L 10.3275 31.4288C 10.6796 31.4288 10.965 31.1434 10.965 30.7913C 10.965 30.4393 10.6796 30.1539 10.3275 30.1539L 2.17547 30.1539C 1.93679 30.1539 1.71114 30.0597 1.54002 29.8887C 1.36898 29.7176 1.27478 29.492 1.27486 29.2532C 1.27486 29.0659 1.33336 28.8874 1.43747 28.739L 9.6498 28.739C 10.0019 28.739 10.2872 28.4536 10.2872 28.1015C 10.2872 27.7495 10.0019 27.4641 9.6498 27.4641L 1.95393 27.4641C 1.90272 27.3498 1.87574 27.2258 1.87574 27.0999C 1.87574 26.6032 2.27972 26.1991 2.77635 26.1991L 10.3275 26.1992C 10.6795 26.1992 10.965 25.9137 10.965 25.5617C 10.965 25.2097 10.6796 24.9243 10.3275 24.9243L 4.04604 24.9242L 4.04604 23.9099C 4.04604 20.5807 5.77531 20.0326 7.60607 19.4523C 9.06911 18.9885 10.7273 18.4629 10.7273 16.2989C 10.7273 14.571 9.32146 13.1652 7.59346 13.1652C 7.01935 13.1652 6.4575 13.3221 5.96859 13.6191C 5.77821 13.7347 5.66206 13.9412 5.66206 14.1639C 5.66206 15.028 5.37833 15.2392 4.88694 15.2953L 3.09018 15.2953L 3.09018 14.5232L 3.36215 14.5232C 3.71422 14.5232 3.99957 14.2378 3.99957 13.8858C 3.99957 13.5337 3.71422 13.2483 3.36215 13.2483L 3.09018 13.2483L 3.09018 12.178C 4.56278 9.95029 6.56685 8.3364 8.61157 7.73743C 8.94495 7.63976 9.13873 7.29314 9.04729 6.958L 8.88999 6.38105L 11.8815 7.7302C 11.906 7.74302 11.9313 7.75428 11.9574 7.76384C 14.2323 8.59909 15.537 11.236 15.537 14.9984ZM 9.24242 10.0592C 8.89034 10.0592 8.60499 10.3445 8.60499 10.6966C 8.60499 11.0487 8.89034 11.334 9.24242 11.334L 9.38492 11.334C 9.73699 11.334 10.0223 11.0487 10.0223 10.6966C 10.0223 10.3445 9.73699 10.0592 9.38492 10.0592L 9.24242 10.0592ZM 20.9006 24.209L 20.9006 30.0791C 20.9006 30.8233 20.2951 31.4287 19.5508 31.4287L 13.6807 31.4287C 12.9364 31.4287 12.331 30.8233 12.331 30.0791L 12.331 24.209C 12.331 23.4647 12.9364 22.8593 13.6807 22.8593L 19.5508 22.8593C 20.2951 22.8593 20.9006 23.4647 20.9006 24.209ZM 19.6258 24.209C 19.6258 24.1691 19.5907 24.1341 19.5508 24.1341L 13.6807 24.1341C 13.6408 24.1341 13.6058 24.1691 13.6058 24.209L 13.6058 30.0791C 13.6058 30.1189 13.6408 30.1538 13.6807 30.1538L 19.5508 30.1538C 19.5906 30.1538 19.6258 30.1189 19.6258 30.0791L 19.6258 24.209ZM 17.7994 25.355L 17.6591 25.355C 17.307 25.355 17.0217 25.6404 17.0217 25.9924C 17.0217 26.3445 17.307 26.6299 17.6591 26.6299L 17.7994 26.6299C 18.1515 26.6299 18.4368 26.3445 18.4368 25.9924C 18.4368 25.6404 18.1515 25.355 17.7994 25.355ZM 17.7993 27.658L 17.659 27.658C 17.3069 27.658 17.0216 27.9433 17.0216 28.2954C 17.0216 28.6475 17.3069 28.9328 17.659 28.9328L 17.7993 28.9328C 18.1514 28.9328 18.4367 28.6475 18.4367 28.2954C 18.4367 27.9433 18.1513 27.658 17.7993 27.658ZM 15.5726 25.355L 15.4323 25.355C 15.0803 25.355 14.7949 25.6404 14.7949 25.9924C 14.7949 26.3445 15.0803 26.6299 15.4323 26.6299L 15.5726 26.6299C 15.9247 26.6299 16.2101 26.3445 16.2101 25.9924C 16.2101 25.6404 15.9247 25.355 15.5726 25.355ZM 15.5726 27.658L 15.4323 27.658C 15.0802 27.658 14.7948 27.9433 14.7948 28.2954C 14.7948 28.6475 15.0802 28.9328 15.4323 28.9328L 15.5726 28.9328C 15.9246 28.9328 16.21 28.6475 16.21 28.2954C 16.21 27.9433 15.9246 27.658 15.5726 27.658Z"/>
</defs>
</svg>
