<svg width="241" height="42" viewBox="0 0 241 42" version="1.1" xmlns="http://www.w3.org/2000/svg" xmlns:xlink="http://www.w3.org/1999/xlink">
<title>Logo</title>
<desc>Created using Figma</desc>
<g id="Canvas" transform="translate(130 125)">
<g id="Logo">
<g id="Game Energy">
<use xlink:href="#path0_fill" transform="translate(-74.697 -112.412)"/>
</g>
<g id="Logo #1">
<g id="Group">
<mask id="mask0_alpha" mask-type="alpha">
<g id="Ellipse">
<use xlink:href="#path1_fill" transform="translate(-130 -124.912)" fill="#333333"/>
</g>
</mask>
<g id="Vector" mask="url(#mask0_alpha)">
<use xlink:href="#path2_fill" transform="translate(-128.454 -124.434)" fill="#2F80ED"/>
</g>
</g>
<g id="G">
<use xlink:href="#path3_fill" transform="translate(-114.423 -109.922)" fill="#FFFFFF"/>
</g>
</g>
</g>
</g>
<defs>
<path id="path0_fill" d="M 17.072 3.8L 17.072 4.438L 15.29 4.438L 15.29 3.8C 15.29 3.56533 15.202 3.36733 15.026 3.206C 14.8647 3.03 14.6667 2.942 14.432 2.942L 3.872 2.942C 3.63733 2.942 3.432 3.03 3.256 3.206C 3.09467 3.36733 3.014 3.56533 3.014 3.8L 3.014 14.36C 3.014 14.5947 3.09467 14.8 3.256 14.976C 3.432 15.1373 3.63733 15.218 3.872 15.218L 14.432 15.218C 14.6667 15.218 14.8647 15.1373 15.026 14.976C 15.202 14.8 15.29 14.5947 15.29 14.36L 15.29 10.444L 11.374 10.444L 11.374 8.64L 17.072 8.64L 17.072 14.36C 17.072 15.0933 16.8153 15.7167 16.302 16.23C 15.7887 16.7433 15.1653 17 14.432 17L 3.872 17C 3.13867 17 2.51533 16.7433 2.002 16.23C 1.48867 15.7167 1.232 15.0933 1.232 14.36L 1.232 3.8C 1.232 3.06667 1.48867 2.44333 2.002 1.93C 2.51533 1.41667 3.13867 1.16 3.872 1.16L 14.432 1.16C 15.1653 1.16 15.7887 1.41667 16.302 1.93C 16.8153 2.44333 17.072 3.06667 17.072 3.8ZM 22.1777 1.16L 32.7377 1.16C 33.4711 1.16 34.0944 1.41667 34.6077 1.93C 35.1211 2.44333 35.3777 3.06667 35.3777 3.8L 35.3777 17L 33.5957 17L 33.5957 11.214L 21.3197 11.214L 21.3197 17L 19.5377 17L 19.5377 3.8C 19.5377 3.06667 19.7944 2.44333 20.3077 1.93C 20.8211 1.41667 21.4444 1.16 22.1777 1.16ZM 21.3197 9.432L 33.5957 9.432L 33.5957 3.8C 33.5957 3.56533 33.5077 3.36733 33.3317 3.206C 33.1704 3.03 32.9724 2.942 32.7377 2.942L 22.1777 2.942C 21.9431 2.942 21.7377 3.03 21.5617 3.206C 21.4004 3.36733 21.3197 3.56533 21.3197 3.8L 21.3197 9.432ZM 46.9043 8.992L 53.4823 1.16L 55.9243 1.16L 55.9243 17L 54.1423 17L 54.1423 3.184L 46.9043 11.786L 39.6663 3.184L 39.6663 17L 37.8843 17L 37.8843 1.16L 40.3263 1.16L 46.9043 8.992ZM 72.7925 1.16L 72.7925 2.942L 60.1205 2.942L 60.1205 8.178L 70.3065 8.178L 70.3065 9.982L 60.1205 9.982L 60.1205 15.218L 72.7925 15.218L 72.7925 17L 58.3385 17L 58.3385 1.16L 72.7925 1.16ZM 95.6304 1.16L 95.6304 2.942L 82.9584 2.942L 82.9584 8.178L 93.1444 8.178L 93.1444 9.982L 82.9584 9.982L 82.9584 15.218L 95.6304 15.218L 95.6304 17L 81.1764 17L 81.1764 1.16L 95.6304 1.16ZM 112.034 14.976L 112.034 1.16L 113.816 1.16L 113.816 17L 111.374 17L 99.7581 3.184L 99.7581 17L 97.9761 17L 97.9761 1.16L 100.418 1.16L 112.034 14.976ZM 130.779 1.16L 130.779 2.942L 118.107 2.942L 118.107 8.178L 128.293 8.178L 128.293 9.982L 118.107 9.982L 118.107 15.218L 130.779 15.218L 130.779 17L 116.325 17L 116.325 1.16L 130.779 1.16ZM 148.943 3.822L 148.943 8.464C 148.943 9.19733 148.686 9.82067 148.173 10.334C 147.659 10.8473 147.036 11.104 146.303 11.104L 143.883 11.104L 148.855 17L 146.501 17L 141.551 11.104L 135.743 11.104C 135.611 11.104 135.325 11.0747 134.885 11.016L 134.885 17L 133.103 17L 133.103 1.182L 146.303 1.182C 147.036 1.182 147.659 1.43867 148.173 1.952C 148.686 2.46533 148.943 3.08867 148.943 3.822ZM 135.743 9.3L 146.303 9.3C 146.537 9.3 146.735 9.21933 146.897 9.058C 147.058 8.89667 147.139 8.69867 147.139 8.464L 147.139 3.822C 147.139 3.58733 147.058 3.38933 146.897 3.228C 146.735 3.052 146.537 2.964 146.303 2.964L 135.743 2.964C 135.508 2.964 135.303 3.052 135.127 3.228C 134.965 3.38933 134.885 3.58733 134.885 3.822L 134.885 8.464C 134.885 8.69867 134.965 8.89667 135.127 9.058C 135.303 9.21933 135.508 9.3 135.743 9.3ZM 167.119 3.8L 167.119 4.438L 165.337 4.438L 165.337 3.8C 165.337 3.56533 165.249 3.36733 165.073 3.206C 164.912 3.03 164.714 2.942 164.479 2.942L 153.919 2.942C 153.684 2.942 153.479 3.03 153.303 3.206C 153.142 3.36733 153.061 3.56533 153.061 3.8L 153.061 14.36C 153.061 14.5947 153.142 14.8 153.303 14.976C 153.479 15.1373 153.684 15.218 153.919 15.218L 164.479 15.218C 164.714 15.218 164.912 15.1373 165.073 14.976C 165.249 14.8 165.337 14.5947 165.337 14.36L 165.337 10.444L 161.421 10.444L 161.421 8.64L 167.119 8.64L 167.119 14.36C 167.119 15.0933 166.862 15.7167 166.349 16.23C 165.836 16.7433 165.212 17 164.479 17L 153.919 17C 153.186 17 152.562 16.7433 152.049 16.23C 151.536 15.7167 151.279 15.0933 151.279 14.36L 151.279 3.8C 151.279 3.06667 151.536 2.44333 152.049 1.93C 152.562 1.41667 153.186 1.16 153.919 1.16L 164.479 1.16C 165.212 1.16 165.836 1.41667 166.349 1.93C 166.862 2.44333 167.119 3.06667 167.119 3.8ZM 182.939 1.16L 185.029 1.16L 177.747 11.038L 177.747 17L 175.965 17L 175.965 11.038L 168.683 1.16L 170.729 1.16L 176.867 8.904L 182.939 1.16Z"/>
<path id="path1_fill" d="M 41 20.5C 41 31.8218 31.8218 41 20.5 41C 9.17816 41 0 31.8218 0 20.5C 0 9.17816 9.17816 0 20.5 0C 31.8218 0 41 9.17816 41 20.5Z"/>
<path id="path2_fill" d="M 37.8759 23.4441C 37.7004 22.0781 37.0439 20.9778 36.3585 20.0333C 35.8609 19.3609 35.3173 18.7655 34.7597 18.2206C 35.2727 17.6243 35.7544 17.0021 36.1887 16.3459C 36.9463 15.1718 37.5829 13.8703 37.7314 12.4078C 37.7601 12.0432 37.7632 11.6734 37.7135 11.3061C 37.6817 11.1206 37.6659 10.9467 37.6027 10.7462L 37.5193 10.4585C 37.4896 10.3692 37.4592 10.3107 37.4288 10.2357C 37.149 9.55255 36.6786 8.97419 36.1414 8.55327C 35.0519 7.71108 33.8091 7.39863 32.6564 7.21497C 31.4927 7.04144 30.3694 7.03397 29.3045 7.09414C 27.81 7.18792 26.4331 7.41157 25.1657 7.67639C 24.9906 7.1319 24.7956 6.57877 24.5726 6.01701C 24.1707 5.02885 23.6848 4.01654 23.0306 3.03867C 22.3728 2.07325 21.5578 1.08359 20.3294 0.456272C 20.0164 0.307554 19.7018 0.181991 19.3311 0.102984C 19.1445 0.0662197 18.933 0.0247248 18.7968 0.0204923L 18.566 0.00198553C 18.5382 0.00165357 18.5873 -0.000421175 18.4969 7.67648e-05L 18.4619 0.00165357L 18.3931 0.00480719L 18.255 0.0107825C 17.5152 0.0438954 16.785 0.29328 16.1588 0.665656C 14.8995 1.42634 13.9927 2.55816 13.2562 3.74682C 12.4833 5.02296 11.8829 6.39279 11.404 7.81299C 10.4056 7.6822 9.34575 7.58975 8.22613 7.57075C 7.15938 7.56145 6.03719 7.62054 4.88305 7.84893C 3.73912 8.08462 2.51245 8.45608 1.46138 9.34939C 1.20287 9.58101 0.966925 9.82276 0.750322 10.1343C 0.644344 10.2935 0.525751 10.4729 0.469567 10.5961L 0.363008 10.8017C 0.352302 10.8274 0.369232 10.7817 0.335123 10.8655L 0.32309 10.8976L 0.299272 10.9623L 0.25147 11.0919C -0.00264549 11.7881 -0.0527714 12.5579 0.0500531 13.2795C 0.266657 14.7344 0.963357 16.0064 1.77707 17.1438C 2.2453 17.7846 2.75959 18.3867 3.30475 18.963C 2.77005 19.5346 2.25178 20.1576 1.78363 20.8559C 1.1412 21.8317 0.536955 22.9611 0.424669 24.3357C 0.406246 24.6824 0.409897 25.021 0.477451 25.3943C 0.515045 25.581 0.556872 25.7926 0.60567 25.9197L 0.675465 26.1405C 0.68559 26.1663 0.665589 26.1215 0.700694 26.2049L 0.71447 26.2358L 0.743351 26.2989L 0.801941 26.4247C 1.11423 27.0964 1.62279 27.6763 2.20638 28.1141C 3.3884 28.9898 4.78073 29.3969 6.15993 29.6253C 7.78745 29.8774 9.43887 29.8924 11.0906 29.7544C 11.7696 32.1784 12.7105 34.5123 14.1034 36.5702C 14.9016 37.7184 15.8622 38.8023 17.1579 39.4959C 17.485 39.6609 17.8245 39.8051 18.1837 39.8989C 18.3671 39.9407 18.5343 39.9911 18.7434 40.0093L 19.0415 40.0415C 19.135 40.0483 19.2018 40.042 19.2824 40.0426C 20.0198 40.0439 20.7351 39.8291 21.3268 39.4935C 22.5214 38.8054 23.2837 37.7759 23.8926 36.7796C 24.4957 35.7701 24.9289 34.7343 25.28 33.7266C 25.8108 32.1645 26.1476 30.6699 26.3917 29.288C 28.4129 29.4417 30.4329 29.3879 32.4013 28.9888C 33.7668 28.6928 35.1378 28.2231 36.2766 27.2942C 36.5545 27.056 36.818 26.7982 37.0426 26.5026C 37.1515 26.3495 37.2635 26.2146 37.36 26.0284L 37.5046 25.7655C 37.5468 25.6819 37.5661 25.6191 37.5986 25.5443C 37.882 24.8637 37.9588 24.1212 37.8759 23.4441ZM 26.2247 12.7287C 26.0985 12.6035 25.9678 12.4828 25.8346 12.3638C 25.9505 12.4237 26.0636 12.4805 26.1829 12.5441C 26.1962 12.6041 26.2115 12.6692 26.2247 12.7287ZM 25.6738 12.2251C 24.0382 10.8273 21.9592 9.93588 19.6759 9.79114C 19.4323 9.70898 19.1687 9.62292 18.8869 9.53205C 19.0436 9.47736 19.205 9.42242 19.3729 9.36748C 20.5379 8.97967 21.9706 8.55883 23.6442 8.21716C 24.0293 8.13998 24.4273 8.06645 24.8376 7.99856C 25.3315 9.25735 25.6908 10.4847 25.9729 11.6163C 26.0442 11.9065 26.1036 12.1837 26.1644 12.4618C 25.9963 12.3794 25.8338 12.3009 25.6738 12.2251ZM 19.5914 9.78467C 19.4011 9.77438 19.2099 9.76807 19.0181 9.76807C 18.7156 9.76807 18.4169 9.78376 18.121 9.8094C 18.3442 9.72566 18.5839 9.6391 18.8381 9.54939C 19.1054 9.62973 19.3567 9.70898 19.5914 9.78467ZM 18.0482 9.81479C 16.0665 10.0015 14.2496 10.7515 12.7579 11.9029C 12.9459 10.7031 13.1783 9.51396 13.4816 8.36778C 13.6337 8.38828 13.7854 8.40953 13.9332 8.43251C 15.6202 8.69518 17.0721 9.04714 18.2541 9.37984C 18.4391 9.4318 18.6158 9.48292 18.7869 9.53404C 18.5242 9.63188 18.2777 9.72558 18.0482 9.81479ZM 9.87572 15.3775C 9.16566 16.7731 8.76241 18.3509 8.76241 20.023C 8.76241 20.1928 8.76764 20.362 8.77544 20.53C 7.4725 19.7155 6.21977 18.8404 5.09808 17.877C 6.25629 16.6836 7.46819 15.6988 8.59594 14.8687C 9.09429 14.505 9.57206 14.1809 10.039 13.8739C 9.9734 14.3735 9.92145 14.8758 9.87572 15.3775ZM 26.4872 27.0462C 26.5213 27.0098 26.5569 26.9749 26.5903 26.9385C 26.5844 26.9776 26.5771 27.0184 26.5709 27.0575C 26.5427 27.0534 26.515 27.0509 26.4872 27.0462ZM 26.4014 12.9102C 26.3863 12.82 26.3705 12.7265 26.3546 12.6338C 27.2408 13.1063 28.227 13.6756 29.2771 14.3688C 30.4489 15.1496 31.7132 16.081 32.9335 17.2275C 31.8268 18.2751 30.5757 19.234 29.2701 20.1309C 29.2701 20.0948 29.2724 20.0589 29.2724 20.0226C 29.2728 17.2603 28.1785 14.7548 26.4014 12.9102ZM 29.3165 7.64228C 30.355 7.66453 31.4358 7.75714 32.5047 8.00263C 33.5608 8.26263 34.64 8.67924 35.4088 9.40748C 36.1837 10.1293 36.4898 11.1565 36.2766 12.213C 36.076 13.2794 35.4475 14.3275 34.7077 15.2993C 34.2727 15.8574 33.7871 16.3884 33.2702 16.9014C 31.9326 15.8156 30.6011 14.9456 29.379 14.2062C 28.2723 13.5509 27.2492 13.0003 26.3383 12.5468C 26.2832 12.2286 26.2274 11.9095 26.1625 11.5742C 25.9336 10.4445 25.6481 9.21976 25.247 7.93433C 26.5069 7.74262 27.8705 7.61481 29.3165 7.64228ZM 14.8472 4.64486C 15.4103 3.56217 16.087 2.54521 16.9646 1.91034C 17.3989 1.59431 17.8741 1.38485 18.3694 1.31339L 18.4618 1.30003L 18.5088 1.29248L 18.5326 1.28916C 18.4609 1.28642 18.5288 1.28775 18.5204 1.28742L 18.7521 1.28459C 18.9247 1.27588 19.0147 1.29887 19.1303 1.30783C 19.3616 1.33397 19.6246 1.40684 19.8657 1.49497C 20.8511 1.87706 21.6886 2.67492 22.3758 3.51669C 23.0551 4.37788 23.6015 5.31541 24.0654 6.24457C 24.318 6.75321 24.5419 7.2602 24.7457 7.76428C 24.3539 7.84984 23.9696 7.93864 23.6018 8.02918C 21.9392 8.45467 20.5147 8.90763 19.3589 9.32574C 19.1771 9.39088 19.0049 9.45362 18.8363 9.51603C 18.6531 9.45786 18.4648 9.39818 18.2662 9.33735C 17.092 8.97427 15.6481 8.58829 13.9675 8.24039C 13.8262 8.21201 13.6811 8.18504 13.5369 8.15798C 13.875 6.92077 14.2996 5.73484 14.8472 4.64486ZM 1.5081 13.0139C 1.38353 12.4917 1.37283 11.9721 1.49789 11.4875L 1.52088 11.3969L 1.532 11.3509L 1.5374 11.3275C 1.5081 11.3931 1.53566 11.3304 1.532 11.3379L 1.61848 11.1229C 1.67665 10.9603 1.73334 10.8859 1.78537 10.7835C 1.89733 10.5798 2.06629 10.3649 2.24107 10.1763C 2.97296 9.41362 4.03199 8.9468 5.0726 8.63659C 6.12906 8.34031 7.20378 8.19765 8.24016 8.12595C 9.30343 8.05624 10.3264 8.07101 11.2983 8.13616C 10.9253 9.29212 10.6277 10.479 10.3918 11.6806C 10.2609 12.3538 10.1509 13.0343 10.0594 13.7187C 9.5553 14.0235 9.03412 14.3475 8.48523 14.7085C 7.3047 15.4989 6.02217 16.4253 4.74413 17.5631C 4.19839 17.0718 3.6831 16.5601 3.21803 16.0193C 2.43543 15.0831 1.75699 14.0674 1.5081 13.0139ZM 6.38409 27.8104C 5.16879 27.7015 3.97083 27.4635 3.05014 26.8935C 2.59311 26.6126 2.218 26.2523 1.96339 25.8214L 1.915 25.7419L 1.89052 25.701L 1.87782 25.6811C 1.90355 25.7479 1.87898 25.6843 1.88122 25.692L 1.79085 25.4791C 1.71657 25.3228 1.70388 25.2311 1.66836 25.1212C 1.60354 24.8969 1.57109 24.6253 1.5618 24.3691C 1.53997 23.3129 1.95899 22.2339 2.47552 21.2789C 2.85046 20.6133 3.28517 19.9956 3.7436 19.4165C 5.02563 20.6931 6.4733 21.8212 7.99808 22.8393C 8.47759 23.1586 8.96956 23.4628 9.46766 23.7598C 9.65406 24.2371 9.87498 24.6975 10.1288 25.1364C 10.2483 25.9718 10.392 26.8019 10.5669 27.6248C 9.14575 27.8255 7.73932 27.9127 6.38409 27.8104ZM 24.767 33.5278C 24.3512 34.4796 23.8538 35.444 23.2198 36.3398C 22.5782 37.2166 21.7811 38.0558 20.8157 38.4896C 19.8529 38.9306 18.7868 38.8233 17.8902 38.2239C 16.9812 37.6338 16.2511 36.6526 15.634 35.5986C 14.5974 33.778 13.9105 31.6591 13.3997 29.4661C 13.7853 29.4026 14.17 29.334 14.5539 29.2573C 15.9033 29.9116 17.4177 30.2783 19.0181 30.2783C 20.8079 30.2783 22.4905 29.818 23.956 29.0124C 23.9595 29.0124 23.9627 29.0134 23.9664 29.0139C 24.6895 29.122 25.4133 29.2092 26.1384 29.27C 25.8265 30.6187 25.4025 32.0638 24.767 33.5278ZM 35.3835 26.1284C 34.4889 26.7406 33.3023 27.0371 32.0926 27.201C 30.3706 27.4136 28.5522 27.3241 26.7166 27.0762C 26.7293 26.9668 26.7433 26.8573 26.755 26.7492C 27.6031 25.7747 28.2697 24.64 28.703 23.3938C 29.2256 23.0509 29.7402 22.6975 30.2435 22.3274C 31.7237 21.2335 33.1211 20.0328 34.3451 18.6908C 34.8283 19.2455 35.29 19.8397 35.6936 20.4841C 36.2563 21.4137 36.7251 22.4723 36.7533 23.5303C 36.7909 24.5885 36.2817 25.5321 35.3835 26.1284Z"/>
<path id="path3_fill" d="M 9.20462 10.1696C 6.88862 10.417 4.76067 10.5407 2.82077 10.5407C 1.85082 10.5407 1.13821 10.3131 0.682924 9.85782C 0.227641 9.40254 0 8.68993 0 7.71998L 0 2.96922C 0 1.93 0.23259 1.17779 0.69777 0.712614C 1.17285 0.237538 1.93 0 2.96923 0L 9.16913 0L 9.16913 2.07846L 3.56308 2.07846C 2.96923 2.07846 2.67231 2.37538 2.67231 2.96922L 2.67231 7.71998C 2.67231 7.94762 2.73664 8.13073 2.86531 8.26929C 3.00387 8.39796 3.18698 8.46229 3.41462 8.46229C 4.55282 8.46229 5.59206 8.43755 6.53231 8.38806L 6.53231 5.92992L 4.60231 5.92992L 4.60231 4.14838L 9.20462 4.14838L 9.20462 10.1696Z"/>
</defs>
</svg>
