<svg width="33" height="29" viewBox="0 0 33 29" version="1.1" xmlns="http://www.w3.org/2000/svg" xmlns:xlink="http://www.w3.org/1999/xlink">
<title>Icon</title>
<desc>Created using Figma</desc>
<g id="Canvas" transform="translate(-876 119)">
<g id="Icon">
<g id="Vector">
<use xlink:href="#path0_fill" transform="translate(876.622 -118.369)" fill="#333333"/>
</g>
<g id="Vector">
<use xlink:href="#path1_fill" transform="translate(885.911 -100.938)" fill="#333333"/>
</g>
<g id="Vector">
<use xlink:href="#path2_fill" transform="translate(892.108 -101.494)" fill="#333333"/>
</g>
</g>
</g>
<defs>
<path id="path0_fill" d="M 32 9.4688L 32 0.615837C 32 0.275792 31.7243 0 31.3842 0L 0.615837 0C 0.27569 0 0 0.275792 0 0.615837L 0 9.4688C 0 11.4484 1.29623 13.13 3.08432 13.7119L 3.08432 26.6836L 0.615837 26.6836C 0.27569 26.6836 0 26.9593 0 27.2994C 0 27.6395 0.27569 27.9153 0.615837 27.9153L 31.3842 27.9153C 31.7243 27.9153 32 27.6395 32 27.2994C 32 26.9593 31.7243 26.6836 31.3842 26.6836L 28.9157 26.6836L 28.9157 13.7119C 30.7038 13.13 32 11.4483 32 9.4688ZM 27.5382 12.699C 25.9676 12.699 24.6558 11.5721 24.3674 10.0846L 30.7088 10.0846C 30.4204 11.5721 29.1086 12.699 27.5382 12.699ZM 12.154 12.699C 10.5836 12.699 9.27193 11.5721 8.98352 10.0846L 15.3246 10.0846C 15.0362 11.5721 13.7245 12.699 12.154 12.699ZM 1.23167 1.23167L 30.7683 1.23167L 30.7683 8.85296L 1.23167 8.85296L 1.23167 1.23167ZM 23.0165 10.0846C 22.7281 11.5721 21.4164 12.699 19.846 12.699C 18.2755 12.699 16.9638 11.5721 16.6754 10.0846L 23.0165 10.0846ZM 1.2912 10.0846L 7.63258 10.0846C 7.34416 11.5721 6.03243 12.699 4.46184 12.699C 2.89135 12.699 1.57972 11.5721 1.2912 10.0846ZM 4.46194 13.9306C 6.09873 13.9306 7.53158 13.0441 8.30805 11.7268C 8.98536 12.876 10.1621 13.6962 11.5382 13.8871L 11.5382 26.6122L 4.31599 26.6122L 4.31599 13.9269C 4.36454 13.9285 4.41298 13.9306 4.46194 13.9306ZM 27.6841 26.612L 12.7699 26.612L 12.7699 13.8871C 14.1459 13.6962 15.3227 12.8759 16.0001 11.7268C 16.7765 13.0442 18.2093 13.9306 19.8461 13.9306C 21.4828 13.9306 22.9156 13.0441 23.6921 11.7268C 24.4685 13.0441 25.9014 13.9306 27.5383 13.9306C 27.5872 13.9306 27.6357 13.9285 27.6842 13.9269L 27.6842 26.612L 27.6841 26.612Z"/>
<path id="path1_fill" d="M 0.615837 5.40417C 0.955881 5.40417 1.23167 5.12838 1.23167 4.78833L 1.23167 0.615836C 1.23167 0.275792 0.955881 -6.5152e-07 0.615837 -6.5152e-07C 0.27569 -6.5152e-07 1.12763e-07 0.275792 1.12763e-07 0.615836L 1.12763e-07 4.78833C 1.12763e-07 5.12848 0.27569 5.40417 0.615837 5.40417Z"/>
<path id="path2_fill" d="M 8.86569 7.64283e-07L 0.615837 7.64283e-07C 0.275793 7.64283e-07 5.01169e-07 0.27569 5.01169e-07 0.615837L 5.01169e-07 5.9963C 5.01169e-07 6.33634 0.275793 6.61214 0.615837 6.61214L 8.86558 6.61214C 9.20573 6.61214 9.48142 6.33634 9.48142 5.9963L 9.48142 0.615837C 9.48152 0.275793 9.20573 7.64283e-07 8.86569 7.64283e-07ZM 8.24985 5.38046L 1.23167 5.38046L 1.23167 1.23167L 8.24975 1.23167L 8.24975 5.38046L 8.24985 5.38046Z"/>
</defs>
</svg>
