<svg width="33" height="33" viewBox="0 0 33 33" version="1.1" xmlns="http://www.w3.org/2000/svg" xmlns:xlink="http://www.w3.org/1999/xlink">
<title>Group</title>
<desc>Created using Figma</desc>
<g id="Canvas" transform="translate(103 -26)">
<g id="Group">
<g id="Vector">
<use xlink:href="#path0_fill" transform="translate(-87.3355 26)" fill="#333333"/>
</g>
<g id="Vector">
<use xlink:href="#path1_fill" transform="translate(-99.1135 29.8269)" fill="#333333"/>
</g>
<g id="Vector">
<use xlink:href="#path2_fill" transform="translate(-99.1731 41.6646)" fill="#333333"/>
</g>
<g id="Vector">
<use xlink:href="#path3_fill" transform="translate(-94.1776 46.5998)" fill="#333333"/>
</g>
<g id="Vector">
<use xlink:href="#path4_fill" transform="translate(-82.3999 42.7718)" fill="#333333"/>
</g>
<g id="Vector">
<use xlink:href="#path5_fill" transform="translate(-103 29.8867)" fill="#333333"/>
</g>
<g id="Vector">
<use xlink:href="#path6_fill" transform="translate(-98.0056 34.822)" fill="#333333"/>
</g>
<g id="Vector">
<use xlink:href="#path7_fill" transform="translate(-86.2279 30.9939)" fill="#333333"/>
</g>
</g>
</g>
<defs>
<path id="path0_fill" d="M 5.73601 2.03201C 5.2344 0.487877 3.57589 -0.35711 2.03201 0.14475C 0.487877 0.646353 -0.357111 2.30487 0.14475 3.84874L 7.74577 27.2352C 8.26775 28.6777 9.82594 29.4882 11.3217 29.0578C 12.882 28.6087 13.833 26.9516 13.3351 25.4193L 5.73601 2.03201Z"/>
<path id="path1_fill" d="M 5.73631 2.03202C 5.23445 0.488012 3.57607 -0.356975 2.03219 0.144628C 0.487926 0.646359 -0.357191 2.30474 0.144798 3.84888L 7.74595 27.2354C 8.26779 28.6778 9.82611 29.4885 11.3219 29.0577C 12.882 28.6088 13.833 26.9517 13.3351 25.4192L 5.73631 2.03202Z"/>
<path id="path2_fill" d="M 27.1412 5.73606C 28.6853 5.23446 29.53 3.57621 29.0284 2.03194C 28.5268 0.488063 26.8683 -0.357054 25.3244 0.144677L 1.93803 7.74596C 0.4955 8.26767 -0.315059 9.82587 0.115365 11.3216C 0.564486 12.8818 2.22158 13.8329 3.75385 13.335L 27.1412 5.73619"/>
<path id="path3_fill" d="M 1.81673 7.40618L 7.40618 5.5901L 5.58984 -4.72217e-08L -1.65276e-07 1.81686L 1.81673 7.40631"/>
<path id="path4_fill" d="M 1.81686 7.40721C 3.93004 6.72083 5.89415 6.08254 7.40644 5.59113L 5.58984 4.09255e-07L 4.87957e-07 1.81686L 1.81686 7.40721Z"/>
<path id="path5_fill" d="M 27.1412 5.73614C 28.6852 5.23454 29.5302 3.57616 29.0286 2.03189C 28.527 0.488014 26.8685 -0.356974 25.3243 0.144629L 1.9378 7.74603C 0.495406 8.2675 -0.315282 9.82582 0.115529 11.3216C 0.564393 12.8816 2.22149 13.8327 3.75402 13.3348L 27.1412 5.73601"/>
<path id="path6_fill" d="M 1.81686 7.40644C 3.33907 6.9118 5.30164 6.27403 7.40721 5.5901C 6.72083 3.47666 6.08254 1.51254 5.59113 3.54163e-07L -2.00692e-07 1.81712L 1.81686 7.40644"/>
<path id="path7_fill" d="M 1.81686 7.40773L 7.40747 5.59113C 6.80197 3.72739 6.1964 1.86368 5.59074 -1.7314e-07L 9.44434e-07 1.81712L 1.81686 7.40773Z"/>
</defs>
</svg>
