<svg width="33" height="30" viewBox="0 0 33 30" version="1.1" xmlns="http://www.w3.org/2000/svg" xmlns:xlink="http://www.w3.org/1999/xlink">
<title>Group</title>
<desc>Created using Figma</desc>
<g id="Canvas" transform="translate(103 -74)">
<g id="Group">
<g id="Group">
<g id="Vector">
<use xlink:href="#path0_fill" transform="translate(-103 74)" fill="#333333"/>
</g>
</g>
</g>
</g>
<defs>
<path id="path0_fill" d="M 26.566 29.5177C 26.3082 29.5177 26.0522 29.4414 25.8326 29.2925L 17.5351 23.6641L 13.0847 26.8664C 12.7357 27.1173 12.2858 27.1806 11.8805 27.0357C 11.4758 26.8904 11.1684 26.5551 11.0586 26.1394L 8.82407 17.671L 0.839693 14.618C 0.337045 14.4257 0.00368792 13.9449 3.03936e-05 13.4067C -0.00362713 12.8685 0.323112 12.3831 0.823322 12.184L 31.1829 0.103739C 31.3206 0.0452188 31.4664 0.0114302 31.6134 0.00237345C 31.666 -0.000761573 31.7188 -0.000761478 31.7712 0.00219937C 32.0756 0.0203128 32.3747 0.14432 32.6081 0.373177C 32.6323 0.396864 32.6553 0.421073 32.677 0.446327C 32.8704 0.667172 32.9766 0.936435 32.9966 1.21075C 33.0015 1.27972 33.0012 1.34956 32.9951 1.4194C 32.9909 1.46921 32.9837 1.51885 32.9736 1.56814L 27.8491 28.456C 27.7667 28.8879 27.4727 29.2495 27.0666 29.4179C 26.9055 29.4848 26.7353 29.5177 26.566 29.5177ZM 18.2636 21.0014L 25.6548 26.0149L 29.6422 5.09312L 15.2408 18.951L 18.2288 20.9779C 18.2408 20.9854 18.2523 20.9934 18.2636 21.0014ZM 12.1108 19.8866L 13.1004 23.6364L 15.2326 22.1022L 12.4407 20.2083C 12.3109 20.1205 12.1998 20.0111 12.1108 19.8866ZM 4.90041 13.3734L 10.3829 15.4695C 10.7756 15.6196 11.0721 15.9499 11.1793 16.3564L 11.8746 18.9914C 11.9065 18.6874 12.0443 18.4015 12.2681 18.186L 25.9906 4.98166L 4.90041 13.3734Z"/>
</defs>
</svg>
