<svg width="33" height="27" viewBox="0 0 33 27" version="1.1" xmlns="http://www.w3.org/2000/svg" xmlns:xlink="http://www.w3.org/1999/xlink">
<title>Group</title>
<desc>Created using Figma</desc>
<g id="Canvas" transform="translate(101 -131)">
<g id="Group">
<g id="Group">
<g id="Group">
<g id="Vector">
<use xlink:href="#path0_fill" transform="translate(-101 131)" fill="#333333"/>
</g>
</g>
</g>
</g>
</g>
<defs>
<path id="path0_fill" d="M 32.811 3.02688C 32.6429 2.85887 32.3629 2.80284 32.1388 2.85887L 31.0185 3.25098C 31.6907 2.46682 32.1388 1.62663 32.4188 0.842475C 32.5309 0.562413 32.4749 0.338377 32.3068 0.170301C 32.1388 0.00229031 31.8587 -0.0537349 31.6346 0.058251C 30.0663 0.730424 28.722 1.29055 27.6018 1.62657C 27.6018 1.68259 27.5457 1.62657 27.4897 1.62657C 26.5935 1.12247 24.409 0.00222575 22.8407 0.00222575C 18.8638 0.0582509 15.6712 3.41899 15.6712 7.50786L 15.6712 7.7319C 9.84591 6.61165 6.65325 4.93128 3.18047 1.29048L 2.62047 0.73036L 2.28439 1.40253C 0.379981 5.04333 1.72426 8.34804 3.90873 10.5885C 2.90053 10.4205 2.22836 10.0844 1.61221 9.58034C 1.38818 9.41233 1.10812 9.3563 0.828054 9.52431C 0.604017 9.63636 0.491967 9.97239 0.547992 10.2524C 1.33215 12.885 3.29258 15.0135 5.42102 16.3017C 4.41283 16.3017 3.57264 16.1897 2.73246 15.6296C 2.50842 15.5175 2.17234 15.5175 1.9483 15.6856C 1.72426 15.8537 1.61221 16.1337 1.72426 16.4137C 2.73246 19.2704 4.69289 20.7827 7.82959 21.1748C 6.20525 22.127 4.07681 22.9112 0.772093 22.9672C 0.436006 22.9672 0.155945 23.1912 0.0439592 23.4713C -0.0680912 23.8074 0.0439592 24.0874 0.267995 24.3115C 2.28445 25.9358 6.76537 26.8881 12.3106 26.8881C 22.1687 26.8881 30.2344 18.0942 30.2344 7.28382L 30.2344 7.11581C 31.4667 6.49966 32.4749 5.32339 32.979 3.69905C 33.035 3.47495 32.979 3.19489 32.811 3.02688ZM 29.4502 6.21954L 29.1141 6.33159L 29.1141 7.28382C 29.1141 17.478 21.5525 25.7678 12.3105 25.7678C 7.21338 25.7678 3.79668 24.9276 1.9483 24.0314C 5.81313 23.7514 8.05362 22.5191 9.79002 21.1748L 11.1903 20.1666L 9.50996 20.1666C 6.3173 20.1666 4.35687 19.2704 3.23662 17.1419C 4.24482 17.478 5.30904 17.478 6.48531 17.422C 6.93338 17.366 7.38152 17.366 7.82959 17.366L 7.9976 16.2457C 5.86916 15.6296 3.34861 13.7252 2.11631 11.1487C 3.23656 11.6528 4.46879 11.7648 5.58903 11.7648L 7.32543 11.7648L 5.92518 10.7565C 4.74891 9.91636 1.27619 6.94774 2.95656 2.69079C 6.54133 6.21954 9.95809 7.84388 16.1194 8.96413L 16.7916 9.07618L 16.7916 7.50786C 16.7916 4.03514 19.4801 1.1785 22.8409 1.12247C 24.1291 1.06645 26.2576 2.24272 26.8737 2.5788C 27.2098 2.74682 27.5459 2.80284 27.8819 2.69085C 28.7221 2.41079 29.7303 2.01868 30.8505 1.57061C 30.3464 2.41079 29.6743 3.19495 28.7781 3.92315C 28.5541 4.09116 28.498 4.42725 28.6101 4.70731C 28.7221 4.98737 29.0582 5.09942 29.3382 4.98737L 31.5227 4.25924C 31.1306 4.98731 30.5144 5.82749 29.4502 6.21954Z"/>
</defs>
</svg>
