<svg width="33" height="28" viewBox="0 0 33 28" version="1.1" xmlns="http://www.w3.org/2000/svg" xmlns:xlink="http://www.w3.org/1999/xlink">
<title>Icon</title>
<desc>Created using Figma</desc>
<g id="Canvas" transform="translate(-513 118)">
<g id="Icon">
<use xlink:href="#path0_fill" transform="translate(513.834 -117.887)" fill="#2F80ED"/>
</g>
</g>
<defs>
<path id="path0_fill" d="M 27.3763 6.31657C 27.6082 6.31657 27.7976 6.12718 27.7976 5.89534L 27.7976 4.49452C 27.7976 3.73371 27.1771 3.11657 26.4196 3.11657L 24.1567 3.11657L 23.6408 1.59167C 23.569 1.37616 23.3371 1.25861 23.1184 1.32391L 10.8637 5.04963C 10.6416 5.1182 10.5143 5.3533 10.5829 5.57534C 10.6384 5.7582 10.8049 5.87248 10.9878 5.87248C 11.0269 5.87248 11.0694 5.86595 11.1118 5.85616L 22.9747 2.24799L 24.1045 5.5884C 24.1796 5.81044 24.4212 5.92799 24.64 5.85289C 24.862 5.77779 24.9796 5.53942 24.9045 5.31738L 24.4441 3.95902L 26.4229 3.95902C 26.72 3.95902 26.9616 4.20065 26.9616 4.49779L 26.9616 5.90187C 26.9551 6.12718 27.1445 6.31657 27.3763 6.31657ZM 30.7363 12.6317C 30.5045 12.6317 30.3151 12.8211 30.3151 13.0529C 30.3151 13.2847 30.5045 13.4741 30.7363 13.4741C 31.0335 13.4741 31.1576 13.5982 31.1576 13.8953L 31.1576 18.9468C 31.1576 19.2439 31.0335 19.368 30.7363 19.368L 24 19.368C 23.7029 19.368 23.5788 19.2439 23.5788 18.9468L 23.5788 14.7378C 23.5788 14.4406 23.7029 14.3166 24 14.3166L 29.0514 14.3166C 29.2833 14.3166 29.4727 14.1272 29.4727 13.8953L 29.4727 8.84391C 29.4727 8.07657 28.9763 7.58024 28.209 7.58024L 2.52735 7.58024C 1.48898 7.58024 0.842449 6.93371 0.842449 5.89534C 0.842449 4.85697 1.48898 4.21044 2.52735 4.21044L 6.80163 4.21044L 4.25469 5.04963C 4.03265 5.12146 3.9151 5.35983 3.98694 5.58187C 4.04571 5.7582 4.20898 5.86922 4.38857 5.86922C 4.43102 5.86922 4.47673 5.86269 4.51918 5.84963L 19.778 0.821056C 20 0.749219 20.1175 0.510852 20.0457 0.288811C 19.9739 0.0667701 19.7355 -0.0507809 19.5135 0.0210559L 9.31918 3.38106C 9.29959 3.37779 9.28327 3.36799 9.26041 3.36799L 2.52735 3.36799C 1.01551 3.36799 0 4.3835 0 5.89534L 0 24.4227C 0 25.9345 1.01551 26.95 2.52735 26.95L 28.2122 26.95C 28.9796 26.95 29.4759 26.4537 29.4759 25.6864L 29.4759 21.4741C 29.4759 21.2423 29.2865 21.0529 29.0547 21.0529C 28.8229 21.0529 28.6335 21.2423 28.6335 21.4741L 28.6335 25.6864C 28.6335 25.9835 28.5094 26.1076 28.2122 26.1076L 2.52735 26.1076C 1.48898 26.1076 0.842449 25.4611 0.842449 24.4227L 0.842449 7.84146C 1.27347 8.20718 1.8449 8.41942 2.52735 8.41942L 28.2122 8.41942C 28.5094 8.41942 28.6335 8.5435 28.6335 8.84065L 28.6335 13.4741L 24 13.4741C 23.2327 13.4741 22.7363 13.9704 22.7363 14.7378L 22.7363 18.9468C 22.7363 19.7141 23.2327 20.2104 24 20.2104L 30.7363 20.2104C 31.5037 20.2104 32 19.7141 32 18.9468L 32 13.8953C 32 13.128 31.5037 12.6317 30.7363 12.6317ZM 26.1061 16.8439C 26.1061 17.3076 26.4816 17.6864 26.9486 17.6864C 27.4122 17.6864 27.791 17.3109 27.791 16.8439C 27.791 16.3802 27.4155 16.0015 26.9486 16.0015C 26.4816 16.0015 26.1061 16.377 26.1061 16.8439Z"/>
</defs>
</svg>
